<svg xmlns="http://www.w3.org/2000/svg" width="256" height="256" viewBox="0 0 100 100"><rect width="100" height="100" rx="20" fill="#20484f"></rect><path fill="#ffffff" d="M56.19 17.47L81.75 82.53L72.39 82.53Q70.81 82.53 69.80 81.75Q68.79 80.96 68.34 79.79L68.34 79.79L63.48 66.52L36.52 66.52L31.66 79.79Q31.30 80.83 30.25 81.68Q29.19 82.53 27.66 82.53L27.66 82.53L18.25 82.53L43.81 17.47L56.19 17.47ZM47.55 36.41L39.63 57.96L60.37 57.96L52.45 36.32Q51.91 34.88 51.26 32.92Q50.61 30.96 49.98 28.67L49.98 28.67Q49.35 30.96 48.74 32.95Q48.13 34.92 47.55 36.41L47.55 36.41Z"></path></svg>